<svg width="62" height="59" viewBox="0 0 62 59" fill="none" xmlns="http://www.w3.org/2000/svg">
<path d="M55.5 29.3C55.5 28.8 55.6 28.4 55.8 28C53.9 26.9 52.8 25.3 52.8 23.5C52.9 20.7 56.1 18.4 60.2 18C61.2 8.59998 61 0.999978 61 0.999978C61 0.999978 23.9 -0.300022 10.4 12.7L9.69997 13.4C11.7 14.6 13 16.6 13 18.9C13 22.6 9.49997 25.7 5.19997 25.7C3.89997 25.7 2.69997 25.4 1.59997 24.9C-2.30003 36.6 13.6 40 17.1 43.4C21.6 47.7 26.1 71.8 48.8 49.9C52.9 45.9 55.7 39.7 57.5 33.1C56.3 32.1 55.5 30.8 55.5 29.3Z" fill="#FFD93B"/>
<path d="M23.5 38.9L28.1 34.3L47.1 46L28.8 33.5L36.4 25.9L53.4 33.4L37.1 25.1L44.2 17.9L57.1 17.3L45.2 16.9L61 1L44.5 16.2L44.1 4.7L43.5 17.2L36.1 24.1L27.5 8.3L35.3 24.8L27.3 32.1L14.4 14.5L26.6 32.8L21.8 37.2L8.89997 29.6L21.1 37.9L8.59998 49.4L10.9 51.6L22.8 39.6L31.4 51.3L23.5 38.9Z" fill="#DB9523"/>
</svg>
